<mxfile host="app.diagrams.net" modified="2024-05-19T17:00:56.609Z" agent="Mozilla/5.0 (Macintosh; Intel Mac OS X 10_15_7) AppleWebKit/537.36 (KHTML, like Gecko) Chrome/124.0.0.0 Safari/537.36" etag="Nvd47Xgl3RBUKSby4pN8" version="24.4.4" type="github">
  <diagram name="Strona-1" id="HVh6dgmQkRU_LPTNf-1_">
    <mxGraphModel dx="954" dy="581" grid="1" gridSize="10" guides="1" tooltips="1" connect="1" arrows="1" fold="1" page="1" pageScale="1" pageWidth="827" pageHeight="1169" math="0" shadow="0">
      <root>
        <mxCell id="0" />
        <mxCell id="1" parent="0" />
        <mxCell id="uzbUSXCzAW2C1Ospv1cJ-5" style="edgeStyle=orthogonalEdgeStyle;rounded=0;orthogonalLoop=1;jettySize=auto;html=1;exitX=1;exitY=0.5;exitDx=0;exitDy=0;entryX=0;entryY=0.5;entryDx=0;entryDy=0;" edge="1" parent="1" source="uzbUSXCzAW2C1Ospv1cJ-3" target="uzbUSXCzAW2C1Ospv1cJ-6">
          <mxGeometry relative="1" as="geometry">
            <mxPoint x="160" y="30" as="targetPoint" />
          </mxGeometry>
        </mxCell>
        <mxCell id="uzbUSXCzAW2C1Ospv1cJ-3" value="Click New Word" style="rounded=1;whiteSpace=wrap;html=1;arcSize=50;fillColor=#fff2cc;strokeColor=#d6b656;" vertex="1" parent="1">
          <mxGeometry width="120" height="60" as="geometry" />
        </mxCell>
        <mxCell id="uzbUSXCzAW2C1Ospv1cJ-32" style="edgeStyle=orthogonalEdgeStyle;rounded=0;orthogonalLoop=1;jettySize=auto;html=1;exitX=1;exitY=0.5;exitDx=0;exitDy=0;" edge="1" parent="1" source="uzbUSXCzAW2C1Ospv1cJ-6" target="uzbUSXCzAW2C1Ospv1cJ-31">
          <mxGeometry relative="1" as="geometry" />
        </mxCell>
        <mxCell id="uzbUSXCzAW2C1Ospv1cJ-6" value="Generate random verb" style="rounded=0;whiteSpace=wrap;html=1;fillColor=#d5e8d4;strokeColor=#82b366;" vertex="1" parent="1">
          <mxGeometry x="160" width="120" height="60" as="geometry" />
        </mxCell>
        <mxCell id="uzbUSXCzAW2C1Ospv1cJ-13" style="edgeStyle=orthogonalEdgeStyle;rounded=0;orthogonalLoop=1;jettySize=auto;html=1;exitX=1;exitY=0.5;exitDx=0;exitDy=0;" edge="1" parent="1" source="uzbUSXCzAW2C1Ospv1cJ-9" target="uzbUSXCzAW2C1Ospv1cJ-12">
          <mxGeometry relative="1" as="geometry" />
        </mxCell>
        <mxCell id="uzbUSXCzAW2C1Ospv1cJ-9" value="User types answers in fields" style="rounded=1;whiteSpace=wrap;html=1;arcSize=50;fillColor=#fff2cc;strokeColor=#d6b656;" vertex="1" parent="1">
          <mxGeometry x="480" width="120" height="60" as="geometry" />
        </mxCell>
        <mxCell id="uzbUSXCzAW2C1Ospv1cJ-18" style="edgeStyle=orthogonalEdgeStyle;rounded=0;orthogonalLoop=1;jettySize=auto;html=1;exitX=1;exitY=0.5;exitDx=0;exitDy=0;entryX=0;entryY=0.5;entryDx=0;entryDy=0;" edge="1" parent="1" source="uzbUSXCzAW2C1Ospv1cJ-12" target="uzbUSXCzAW2C1Ospv1cJ-14">
          <mxGeometry relative="1" as="geometry" />
        </mxCell>
        <mxCell id="uzbUSXCzAW2C1Ospv1cJ-12" value="User clicks Check btn" style="rounded=1;whiteSpace=wrap;html=1;arcSize=50;fillColor=#fff2cc;strokeColor=#d6b656;" vertex="1" parent="1">
          <mxGeometry x="640" width="120" height="60" as="geometry" />
        </mxCell>
        <mxCell id="uzbUSXCzAW2C1Ospv1cJ-20" style="edgeStyle=orthogonalEdgeStyle;rounded=0;orthogonalLoop=1;jettySize=auto;html=1;exitX=1;exitY=0.5;exitDx=0;exitDy=0;entryX=0;entryY=0.5;entryDx=0;entryDy=0;" edge="1" parent="1" source="uzbUSXCzAW2C1Ospv1cJ-14" target="uzbUSXCzAW2C1Ospv1cJ-19">
          <mxGeometry relative="1" as="geometry" />
        </mxCell>
        <mxCell id="uzbUSXCzAW2C1Ospv1cJ-21" value="Yes" style="edgeLabel;html=1;align=center;verticalAlign=middle;resizable=0;points=[];fontStyle=1" vertex="1" connectable="0" parent="uzbUSXCzAW2C1Ospv1cJ-20">
          <mxGeometry x="-0.175" relative="1" as="geometry">
            <mxPoint y="-10" as="offset" />
          </mxGeometry>
        </mxCell>
        <mxCell id="uzbUSXCzAW2C1Ospv1cJ-25" style="edgeStyle=orthogonalEdgeStyle;rounded=0;orthogonalLoop=1;jettySize=auto;html=1;entryX=0.5;entryY=0;entryDx=0;entryDy=0;" edge="1" parent="1" source="uzbUSXCzAW2C1Ospv1cJ-14" target="uzbUSXCzAW2C1Ospv1cJ-24">
          <mxGeometry relative="1" as="geometry" />
        </mxCell>
        <mxCell id="uzbUSXCzAW2C1Ospv1cJ-14" value="Correct&lt;div&gt;answers?&lt;/div&gt;" style="rhombus;whiteSpace=wrap;html=1;fillColor=#dae8fc;strokeColor=#6c8ebf;" vertex="1" parent="1">
          <mxGeometry x="800" width="120" height="60" as="geometry" />
        </mxCell>
        <mxCell id="uzbUSXCzAW2C1Ospv1cJ-15" style="edgeStyle=orthogonalEdgeStyle;rounded=0;orthogonalLoop=1;jettySize=auto;html=1;exitX=0.5;exitY=1;exitDx=0;exitDy=0;" edge="1" parent="1" source="uzbUSXCzAW2C1Ospv1cJ-14" target="uzbUSXCzAW2C1Ospv1cJ-14">
          <mxGeometry relative="1" as="geometry" />
        </mxCell>
        <mxCell id="uzbUSXCzAW2C1Ospv1cJ-30" style="edgeStyle=orthogonalEdgeStyle;rounded=0;orthogonalLoop=1;jettySize=auto;html=1;exitX=1;exitY=0.5;exitDx=0;exitDy=0;" edge="1" parent="1" source="uzbUSXCzAW2C1Ospv1cJ-19" target="uzbUSXCzAW2C1Ospv1cJ-29">
          <mxGeometry relative="1" as="geometry" />
        </mxCell>
        <mxCell id="uzbUSXCzAW2C1Ospv1cJ-19" value="Switch type field color to green" style="rounded=0;whiteSpace=wrap;html=1;fillColor=#d5e8d4;strokeColor=#82b366;" vertex="1" parent="1">
          <mxGeometry x="960" width="120" height="60" as="geometry" />
        </mxCell>
        <mxCell id="uzbUSXCzAW2C1Ospv1cJ-27" value="" style="edgeStyle=orthogonalEdgeStyle;rounded=0;orthogonalLoop=1;jettySize=auto;html=1;" edge="1" parent="1" source="uzbUSXCzAW2C1Ospv1cJ-24" target="uzbUSXCzAW2C1Ospv1cJ-14">
          <mxGeometry relative="1" as="geometry" />
        </mxCell>
        <mxCell id="uzbUSXCzAW2C1Ospv1cJ-28" value="No" style="edgeLabel;html=1;align=center;verticalAlign=middle;resizable=0;points=[];fontStyle=1" vertex="1" connectable="0" parent="uzbUSXCzAW2C1Ospv1cJ-27">
          <mxGeometry x="0.44" y="-3" relative="1" as="geometry">
            <mxPoint x="-13" y="9" as="offset" />
          </mxGeometry>
        </mxCell>
        <mxCell id="uzbUSXCzAW2C1Ospv1cJ-38" style="edgeStyle=orthogonalEdgeStyle;rounded=0;orthogonalLoop=1;jettySize=auto;html=1;exitX=1;exitY=0.5;exitDx=0;exitDy=0;" edge="1" parent="1" source="uzbUSXCzAW2C1Ospv1cJ-24" target="uzbUSXCzAW2C1Ospv1cJ-37">
          <mxGeometry relative="1" as="geometry" />
        </mxCell>
        <mxCell id="uzbUSXCzAW2C1Ospv1cJ-24" value="Switch incorrect type field color to red" style="rounded=0;whiteSpace=wrap;html=1;fillColor=#d5e8d4;strokeColor=#82b366;" vertex="1" parent="1">
          <mxGeometry x="800" y="100" width="120" height="60" as="geometry" />
        </mxCell>
        <mxCell id="uzbUSXCzAW2C1Ospv1cJ-29" value="Add 1 point to &#39;Correct Answers&#39;" style="rounded=0;whiteSpace=wrap;html=1;fillColor=#d5e8d4;strokeColor=#82b366;" vertex="1" parent="1">
          <mxGeometry x="1121" width="120" height="60" as="geometry" />
        </mxCell>
        <mxCell id="uzbUSXCzAW2C1Ospv1cJ-34" style="edgeStyle=orthogonalEdgeStyle;rounded=0;orthogonalLoop=1;jettySize=auto;html=1;exitX=1;exitY=0.5;exitDx=0;exitDy=0;entryX=0;entryY=0.5;entryDx=0;entryDy=0;" edge="1" parent="1" source="uzbUSXCzAW2C1Ospv1cJ-31" target="uzbUSXCzAW2C1Ospv1cJ-9">
          <mxGeometry relative="1" as="geometry" />
        </mxCell>
        <mxCell id="uzbUSXCzAW2C1Ospv1cJ-31" value="Display verb in polish translation field" style="rounded=0;whiteSpace=wrap;html=1;fillColor=#d5e8d4;strokeColor=#82b366;" vertex="1" parent="1">
          <mxGeometry x="320" width="120" height="60" as="geometry" />
        </mxCell>
        <mxCell id="uzbUSXCzAW2C1Ospv1cJ-35" value="Add 1 point to &#39;Wrong answers&#39;" style="rounded=0;whiteSpace=wrap;html=1;fillColor=#d5e8d4;strokeColor=#82b366;" vertex="1" parent="1">
          <mxGeometry x="1120" y="100" width="120" height="60" as="geometry" />
        </mxCell>
        <mxCell id="uzbUSXCzAW2C1Ospv1cJ-39" style="edgeStyle=orthogonalEdgeStyle;rounded=0;orthogonalLoop=1;jettySize=auto;html=1;exitX=1;exitY=0.5;exitDx=0;exitDy=0;entryX=0;entryY=0.5;entryDx=0;entryDy=0;" edge="1" parent="1" source="uzbUSXCzAW2C1Ospv1cJ-37" target="uzbUSXCzAW2C1Ospv1cJ-35">
          <mxGeometry relative="1" as="geometry" />
        </mxCell>
        <mxCell id="uzbUSXCzAW2C1Ospv1cJ-37" value="Switch correct type field color to green" style="rounded=0;whiteSpace=wrap;html=1;fillColor=#d5e8d4;strokeColor=#82b366;" vertex="1" parent="1">
          <mxGeometry x="960" y="100" width="120" height="60" as="geometry" />
        </mxCell>
      </root>
    </mxGraphModel>
  </diagram>
</mxfile>
